<svg xmlns="http://www.w3.org/2000/svg" enable-background="new 0 0 64 64" viewBox="0 0 64 64" id="sea"><path fill="#6b6ba5" d="M63.99,4.48c0-0.44-0.29-0.81-0.72-0.93c-0.42-0.12-0.86,0.06-1.09,0.44c-0.97,1.63-2.74,2.64-4.64,2.64
		c-2.22,0-4.2-1.34-5.03-3.39c-0.22-0.56-0.76-0.92-1.36-0.92s-1.13,0.36-1.37,0.92c-0.82,2.06-2.8,3.39-5.02,3.39
		c-2.22,0-4.2-1.34-5.02-3.39c-0.23-0.56-0.77-0.92-1.37-0.92c-0.6,0-1.13,0.36-1.36,0.92c-0.83,2.06-2.81,3.39-5.03,3.39
		s-4.19-1.34-5.02-3.39c-0.23-0.56-0.77-0.92-1.37-0.92c-0.6,0-1.13,0.36-1.36,0.92c-0.83,2.06-2.8,3.39-5.03,3.39
		c-2.22,0-4.19-1.34-5.02-3.39c-0.22-0.56-0.76-0.92-1.36-0.92c-0.6,0-1.14,0.36-1.37,0.92c-0.83,2.06-2.8,3.39-5.02,3.39
		c-1.9,0-3.68-1.01-4.64-2.64c-0.22-0.38-0.67-0.55-1.1-0.44C0.29,3.67,0,4.04,0,4.48v55.18c0,0.44,0.29,0.82,0.71,0.94
		c0.43,0.12,0.87-0.07,1.1-0.45c1.01-1.71,2.79-2.77,4.64-2.77c2.22,0,4.19,1.34,5.02,3.39c0.22,0.56,0.77,0.92,1.37,0.92
		c0.6,0,1.13-0.36,1.36-0.92c0.83-2.06,2.8-3.39,5.02-3.39c2.23,0,4.2,1.34,5.03,3.39c0.22,0.56,0.76,0.92,1.36,0.92
		c0.6,0,1.13-0.36,1.37-0.92c0.83-2.06,2.8-3.39,5.02-3.39s4.2,1.34,5.03,3.39c0.22,0.56,0.76,0.92,1.36,0.92
		c0.6,0,1.13-0.36,1.37-0.92c0.82-2.06,2.8-3.39,5.02-3.39c2.22,0,4.2,1.34,5.02,3.39c0.23,0.56,0.77,0.92,1.37,0.92
		s1.13-0.36,1.36-0.92c0.83-2.06,2.81-3.39,5.03-3.39c1.85,0,3.63,1.07,4.64,2.77c0.22,0.38,0.67,0.56,1.09,0.45
		c0.43-0.12,0.72-0.5,0.72-0.94L63.99,4.48z M57.55,55.44c-2.68,0-5.09,1.43-6.39,3.7c-1.3-2.28-3.71-3.7-6.39-3.7
		c-2.68,0-5.09,1.43-6.39,3.7c-1.3-2.28-3.71-3.7-6.39-3.7s-5.09,1.43-6.39,3.7c-1.3-2.28-3.7-3.7-6.39-3.7
		c-2.68,0-5.09,1.43-6.38,3.7c-1.3-2.28-3.71-3.7-6.39-3.7c-1.63,0-3.22,0.6-4.5,1.64V44.7c1.32,0.66,2.64,0.99,3.97,0.99
		c1.83,0,3.67-0.63,5.49-1.88c0.45-0.3,0.55-0.9,0.25-1.35c-0.3-0.44-0.91-0.55-1.35-0.25c-2.81,1.94-5.56,2.01-8.36,0.26V26.02
		c1.32,0.66,2.64,0.99,3.97,0.99c1.83,0,3.67-0.63,5.49-1.87c0.45-0.31,0.55-0.91,0.25-1.35c-0.3-0.45-0.91-0.56-1.35-0.25
		c-2.81,1.93-5.56,2-8.36,0.25V7.01C3.21,8,4.79,8.56,6.44,8.56c2.68,0,5.09-1.43,6.39-3.7c1.29,2.28,3.7,3.7,6.38,3.7
		c2.69,0,5.09-1.43,6.39-3.7c1.3,2.28,3.71,3.7,6.39,3.7s5.09-1.43,6.39-3.7c1.3,2.28,3.71,3.7,6.39,3.7c2.68,0,5.09-1.43,6.39-3.7
		c1.3,2.28,3.71,3.7,6.39,3.7c1.65,0,3.23-0.56,4.5-1.55v17.17c-2.8,1.75-5.54,1.67-8.35-0.26c-0.45-0.3-1.05-0.18-1.35,0.25
		c-0.31,0.45-0.19,1.05,0.24,1.35c1.82,1.25,3.66,1.87,5.49,1.87c1.33,0,2.65-0.33,3.97-0.98v16.34c-2.8,1.75-5.54,1.68-8.35-0.25
		c-0.45-0.3-1.05-0.19-1.35,0.25c-0.31,0.44-0.19,1.05,0.24,1.35c1.82,1.25,3.66,1.87,5.49,1.87c1.33,0,2.65-0.33,3.97-0.98
		l0.01,12.08C60.77,56.04,59.18,55.44,57.55,55.44z"></path><path fill="#cce6ff" d="M62.05,44.99c-1.32,0.65-2.64,0.98-3.97,0.98c-1.83,0-3.67-0.62-5.49-1.87c-0.44-0.3-0.55-0.91-0.24-1.35
		c0.3-0.45,0.9-0.55,1.35-0.25c2.81,1.93,5.55,2,8.35,0.25V26.41c-1.32,0.65-2.64,0.98-3.97,0.98c-1.83,0-3.67-0.62-5.49-1.87
		c-0.44-0.3-0.55-0.9-0.24-1.35c0.3-0.44,0.9-0.55,1.35-0.25c2.81,1.93,5.55,2.01,8.35,0.26V7.01C60.78,8,59.2,8.56,57.55,8.56
		c-2.68,0-5.09-1.43-6.39-3.7c-1.3,2.28-3.71,3.7-6.39,3.7c-2.68,0-5.09-1.43-6.39-3.7c-1.3,2.28-3.71,3.7-6.39,3.7
		s-5.09-1.43-6.39-3.7c-1.3,2.28-3.7,3.7-6.39,3.7c-2.68,0-5.09-1.43-6.38-3.7c-1.3,2.28-3.71,3.7-6.39,3.7
		c-1.65,0-3.23-0.56-4.5-1.55v16.78c2.8,1.75,5.55,1.68,8.36-0.25c0.44-0.31,1.05-0.19,1.35,0.25c0.3,0.44,0.19,1.04-0.25,1.35
		c-1.82,1.24-3.66,1.87-5.49,1.87c-1.33,0-2.65-0.33-3.97-0.99v16.46c2.8,1.75,5.55,1.68,8.36-0.26c0.44-0.3,1.05-0.18,1.35,0.25
		c0.3,0.45,0.19,1.05-0.25,1.35c-1.82,1.25-3.66,1.88-5.49,1.88c-1.33,0-2.65-0.33-3.97-0.99v12.37c1.28-1.04,2.87-1.64,4.5-1.64
		c2.68,0,5.09,1.43,6.39,3.7c1.29-2.28,3.7-3.7,6.38-3.7c2.69,0,5.09,1.43,6.39,3.7c1.3-2.28,3.71-3.7,6.39-3.7s5.09,1.43,6.39,3.7
		c1.3-2.28,3.71-3.7,6.39-3.7c2.68,0,5.09,1.43,6.39,3.7c1.3-2.28,3.71-3.7,6.39-3.7c1.63,0,3.22,0.6,4.51,1.64L62.05,44.99z
		 M24.58,51.21c-1.82,1.25-3.66,1.88-5.49,1.88c-1.83,0-3.67-0.63-5.49-1.88c-0.45-0.3-0.55-0.9-0.25-1.35
		c0.3-0.44,0.91-0.55,1.35-0.25c2.96,2.03,5.83,2.03,8.79,0c0.44-0.3,1.04-0.18,1.35,0.25C25.13,50.31,25.02,50.91,24.58,51.21z
		 M24.58,34.37c-1.82,1.25-3.66,1.88-5.49,1.88c-1.83,0-3.67-0.63-5.49-1.88c-0.45-0.3-0.55-0.9-0.25-1.35
		c0.3-0.44,0.91-0.55,1.35-0.24c2.96,2.03,5.83,2.03,8.79,0c0.44-0.31,1.04-0.19,1.35,0.24C25.13,33.46,25.02,34.07,24.58,34.37z
		 M24.58,16.09c-1.82,1.25-3.66,1.87-5.49,1.87c-1.83,0-3.67-0.62-5.49-1.87c-0.45-0.3-0.55-0.91-0.25-1.35
		c0.3-0.45,0.91-0.55,1.35-0.25c2.96,2.03,5.83,2.03,8.79,0c0.44-0.3,1.04-0.19,1.35,0.25C25.13,15.18,25.02,15.79,24.58,16.09z
		 M38.93,44.1c-1.82,1.25-3.66,1.87-5.49,1.87c-1.83,0-3.67-0.62-5.49-1.87c-0.45-0.3-0.55-0.91-0.25-1.35
		c0.3-0.45,0.91-0.55,1.35-0.25c2.96,2.03,5.83,2.03,8.79,0c0.44-0.3,1.04-0.19,1.35,0.25C39.49,43.19,39.37,43.8,38.93,44.1z
		 M38.93,25.13c-1.82,1.24-3.66,1.87-5.49,1.87c-1.83,0-3.67-0.63-5.49-1.87c-0.45-0.31-0.55-0.91-0.25-1.35
		c0.3-0.45,0.91-0.56,1.35-0.25c2.96,2.03,5.83,2.03,8.79,0c0.44-0.31,1.04-0.19,1.35,0.25C39.49,24.22,39.37,24.82,38.93,25.13z
		 M41.46,14.74c0.3-0.45,0.91-0.55,1.35-0.25c2.96,2.03,5.83,2.03,8.79,0c0.44-0.3,1.05-0.19,1.35,0.25
		c0.3,0.44,0.19,1.05-0.25,1.35c-1.82,1.25-3.66,1.87-5.49,1.87c-1.83,0-3.67-0.62-5.49-1.87C41.28,15.79,41.16,15.18,41.46,14.74z
		 M41.46,33.02c0.3-0.44,0.91-0.55,1.35-0.24c2.96,2.03,5.83,2.03,8.79,0c0.44-0.31,1.05-0.19,1.35,0.24
		c0.3,0.45,0.19,1.05-0.25,1.35c-1.82,1.25-3.66,1.88-5.49,1.88c-1.83,0-3.67-0.63-5.49-1.88C41.28,34.07,41.16,33.46,41.46,33.02z
		 M52.69,50.72c-1.82,1.25-3.66,1.88-5.49,1.88c-1.83,0-3.67-0.63-5.49-1.88c-0.44-0.3-0.55-0.9-0.25-1.35
		c0.3-0.44,0.91-0.55,1.35-0.24c2.96,2.03,5.83,2.03,8.79,0c0.44-0.31,1.05-0.19,1.35,0.24C53.25,49.81,53.14,50.41,52.69,50.72z"></path><path fill="#6b6ba5" d="M24.58 16.09c-1.82 1.25-3.66 1.87-5.49 1.87-1.83 0-3.67-.62-5.49-1.87-.45-.3-.55-.91-.25-1.35.3-.45.91-.55 1.35-.25 2.96 2.03 5.83 2.03 8.79 0 .44-.3 1.04-.19 1.35.25C25.13 15.18 25.02 15.79 24.58 16.09zM38.93 25.13c-1.82 1.24-3.66 1.87-5.49 1.87-1.83 0-3.67-.63-5.49-1.87-.45-.31-.55-.91-.25-1.35.3-.45.91-.56 1.35-.25 2.96 2.03 5.83 2.03 8.79 0 .44-.31 1.04-.19 1.35.25C39.49 24.22 39.37 24.82 38.93 25.13zM52.69 16.09c-1.82 1.25-3.66 1.87-5.49 1.87-1.83 0-3.67-.62-5.49-1.87-.44-.3-.55-.91-.25-1.35.3-.45.91-.55 1.35-.25 2.96 2.03 5.83 2.03 8.79 0 .44-.3 1.05-.19 1.35.25C53.25 15.18 53.14 15.79 52.69 16.09zM52.69 34.37c-1.82 1.25-3.66 1.88-5.49 1.88-1.83 0-3.67-.63-5.49-1.88-.44-.3-.55-.9-.25-1.35.3-.44.91-.55 1.35-.24 2.96 2.03 5.83 2.03 8.79 0 .44-.31 1.05-.19 1.35.24C53.25 33.46 53.14 34.07 52.69 34.37zM38.93 44.1c-1.82 1.25-3.66 1.87-5.49 1.87-1.83 0-3.67-.62-5.49-1.87-.45-.3-.55-.91-.25-1.35.3-.45.91-.55 1.35-.25 2.96 2.03 5.83 2.03 8.79 0 .44-.3 1.04-.19 1.35.25C39.49 43.19 39.37 43.8 38.93 44.1zM24.58 34.37c-1.82 1.25-3.66 1.88-5.49 1.88-1.83 0-3.67-.63-5.49-1.88-.45-.3-.55-.9-.25-1.35.3-.44.91-.55 1.35-.24 2.96 2.03 5.83 2.03 8.79 0 .44-.31 1.04-.19 1.35.24C25.13 33.46 25.02 34.07 24.58 34.37zM52.69 50.72c-1.82 1.25-3.66 1.88-5.49 1.88-1.83 0-3.67-.63-5.49-1.88-.44-.3-.55-.9-.25-1.35.3-.44.91-.55 1.35-.24 2.96 2.03 5.83 2.03 8.79 0 .44-.31 1.05-.19 1.35.24C53.25 49.81 53.14 50.41 52.69 50.72zM24.58 51.21c-1.82 1.25-3.66 1.88-5.49 1.88-1.83 0-3.67-.63-5.49-1.88-.45-.3-.55-.9-.25-1.35.3-.44.91-.55 1.35-.25 2.96 2.03 5.83 2.03 8.79 0 .44-.3 1.04-.18 1.35.25C25.13 50.31 25.02 50.91 24.58 51.21z"></path></svg>