<svg xmlns="http://www.w3.org/2000/svg" data-name="Layer 1" viewBox="0 0 512 512" id="windsock"><path fill="#e0e0e2" d="M21 37.5h30v467H21z"></path><path fill="#2c2b2d" d="M51 512H21a7.5 7.5 0 0 1-7.5-7.5v-467A7.5 7.5 0 0 1 21 30h30a7.5 7.5 0 0 1 7.5 7.5v467A7.5 7.5 0 0 1 51 512Zm-22.5-15h15V45h-15Z"></path><circle cx="36" cy="36" r="28.5" fill="#e5303e"></circle><path fill="#2c2b2d" d="M36 72a36 36 0 1 1 36-36 36.04 36.04 0 0 1-36 36Zm0-57a21 21 0 1 0 21 21 21.024 21.024 0 0 0-21-21Z"></path><path fill="#e0e0e2" d="M235.5 121.5a189.73 189.73 0 0 1-18 72l.31 1.98c-31.8 5.12-58.91 18.54-79.39 31.38.05-.1.11-.2.17-.31a191.807 191.807 0 0 0 22.91-88.05 191.75 191.75 0 0 0-22.8-93.11c-.04-.08-.09-.16-.13-.24 29.07-12.78 54.54-18.7 76.78-20.04l.15 2.39a191.314 191.314 0 0 1 20 94Z"></path><path fill="#2c2b2d" d="M138.422 234.36a7.5 7.5 0 0 1-6.717-10.841c.087-.175.183-.351.285-.532a184.661 184.661 0 0 0 22.011-84.591 184.174 184.174 0 0 0-21.906-89.455l-.016-.028c-.09-.163-.174-.32-.25-.475a7.5 7.5 0 0 1 3.723-10.154c27.775-12.21 54.47-19.161 79.346-20.66a7.497 7.497 0 0 1 7.937 7.015l.056.89a198.874 198.874 0 0 1 20.1 96.324 195.869 195.869 0 0 1-17.732 72.75 7.5 7.5 0 0 1-6.256 8.282c-25.197 4.056-50.969 14.261-76.6 30.33a7.484 7.484 0 0 1-3.981 1.145Zm6.63-4.001-.001.004Zm3.87-181.45A199.026 199.026 0 0 1 169 138.604a198.794 198.794 0 0 1-13.908 70.166 211.937 211.937 0 0 1 56.23-19.76 181.016 181.016 0 0 0 16.688-67.863 183.781 183.781 0 0 0-18.135-88.085c-19.224 1.86-39.67 7.176-60.951 15.847Zm-16.93-.165.004.008Z"></path><path fill="#e5303e" d="M325.5 131.5a211.555 211.555 0 0 1-16 75l-.09.24h-.01c-12.06-4.65-23.79-9.13-40.96-11.66a165.28 165.28 0 0 0-50.63.4l-.31-1.98a189.73 189.73 0 0 0 18-72 191.314 191.314 0 0 0-20-94l-.15-2.39c36.06-2.18 63.62 7.65 84.22 19.68q6.81 3.975 12.93 7.71a211.657 211.657 0 0 1 13 79Z"></path><path fill="#2c2b2d" d="M309.41 214.24a7.561 7.561 0 0 1-2.708-.502c-11.741-4.527-22.83-8.803-39.355-11.238a158.371 158.371 0 0 0-48.346.385 7.5 7.5 0 0 1-8.6-6.243l-.31-1.98a7.492 7.492 0 0 1 .628-4.365 181.084 181.084 0 0 0 17.289-69.15 183.923 183.923 0 0 0-19.22-90.301 7.507 7.507 0 0 1-.773-2.875l-.15-2.39a7.5 7.5 0 0 1 7.032-7.957c31.885-1.924 61.645 5.034 88.456 20.69a824.106 824.106 0 0 1 13.047 7.78 7.496 7.496 0 0 1 3.136 3.81 218.686 218.686 0 0 1-3.057 159.343l-.044.12a7.5 7.5 0 0 1-7.025 4.873Zm0-7.5Zm-64.864-20.91a170.926 170.926 0 0 1 24.99 1.83 166.143 166.143 0 0 1 35.611 9.432 202.939 202.939 0 0 0 12.856-65.799 202.97 202.97 0 0 0-11.655-73.753 809.566 809.566 0 0 0-10.559-6.273 135.91 135.91 0 0 0-69.746-18.968 198.382 198.382 0 0 1 16.948 89.554 195.516 195.516 0 0 1-14.25 64.697q7.91-.72 15.805-.72Z"></path><path fill="#e0e0e2" d="m392.5 221.5.01.38a183.444 183.444 0 0 1-48.09-3.96c-14.27-3.14-24.75-7.22-35.01-11.18l.09-.24a211.19 211.19 0 0 0 3-154c39.87 24.26 59.87 41.13 80.11 51.79l-.11.21a213.544 213.544 0 0 1 0 117Z"></path><path fill="#2c2b2d" d="M383.572 229.586a190.31 190.31 0 0 1-40.759-4.34c-14.63-3.22-25.326-7.348-35.669-11.341l-.434-.168a7.5 7.5 0 0 1-4.324-9.624l.09-.24c.03-.081.061-.161.094-.241a203.692 203.692 0 0 0 2.894-148.536 7.5 7.5 0 0 1 10.934-9.003c19.896 12.106 35.122 22.549 47.356 30.94 12.576 8.625 22.509 15.438 32.35 20.621a7.496 7.496 0 0 1 3.99 6.148 221.027 221.027 0 0 1-.121 118.83 7.502 7.502 0 0 1-7.119 6.74q-4.656.214-9.282.214Zm-64.41-27.145a190.045 190.045 0 0 0 26.87 8.154 173.353 173.353 0 0 0 40.575 3.97 205.969 205.969 0 0 0-.57-105.305c-9.55-5.305-19.046-11.818-30.766-19.857-8.275-5.675-17.933-12.3-29.475-19.73a218.757 218.757 0 0 1-6.634 132.768Z"></path><path fill="#e5303e" d="M478.5 161.5a82.588 82.588 0 0 1-13.31 45.16 274.776 274.776 0 0 1-42.69 11.72 218.147 218.147 0 0 1-29.99 3.5l-.01-.38a213.544 213.544 0 0 0 0-117l.11-.21a111.84 111.84 0 0 0 29.9 10.87c10.14 2.15 23.91 3.37 41.42.08a82.665 82.665 0 0 1 14.57 46.26Z"></path><path fill="#2c2b2d" d="M392.51 229.38a7.499 7.499 0 0 1-7.497-7.307l-.01-.38a7.51 7.51 0 0 1 .281-2.24 206.038 206.038 0 0 0 .002-112.9 7.5 7.5 0 0 1 .563-5.518l.11-.21a7.5 7.5 0 0 1 10.147-3.17 103.956 103.956 0 0 0 27.962 10.169 96.5 96.5 0 0 0 38.477.045 7.504 7.504 0 0 1 7.556 3.108A90.64 90.64 0 0 1 486 161.465v-.001a90.691 90.691 0 0 1-14.526 49.29 7.498 7.498 0 0 1-3.75 2.965 283.89 283.89 0 0 1-43.854 12.034 226.686 226.686 0 0 1-31.021 3.619 7.113 7.113 0 0 1-.34.008zm10.9-111.989a220.844 220.844 0 0 1-1.135 96.279 217.67 217.67 0 0 0 18.856-2.664 266.756 266.756 0 0 0 39.09-10.542A75.482 75.482 0 0 0 471 161.536v-.001a75.298 75.298 0 0 0-10.705-38.082 110.959 110.959 0 0 1-39.34-.956 120.081 120.081 0 0 1-17.545-5.106zm61.78 89.27zM62.493 154a7.5 7.5 0 0 1-5.997-11.997l75.49-100.8a7.5 7.5 0 1 1 12.006 8.992l-75.49 100.8A7.487 7.487 0 0 1 62.494 154z"></path><path fill="#2c2b2d" d="M138.441 234.49a7.478 7.478 0 0 1-5.456-2.353l-75.94-80.49a7.5 7.5 0 0 1 10.91-10.294l75.94 80.49a7.5 7.5 0 0 1-5.454 12.647Z"></path><path fill="#58565d" d="M7.5 115.5h57v62h-57z"></path><path fill="#2c2b2d" d="M64.5 185h-57a7.5 7.5 0 0 1-7.5-7.5v-62a7.5 7.5 0 0 1 7.5-7.5h57a7.5 7.5 0 0 1 7.5 7.5v62a7.5 7.5 0 0 1-7.5 7.5ZM15 170h42v-47H15Z"></path><path fill="#e5303e" d="M138.5 45.5a191.151 191.151 0 0 1 22.915 96 190.577 190.577 0 0 1-22.915 85 175.786 175.786 0 0 1 0-181Z"></path><path fill="#2c2b2d" d="M138.499 234a7.502 7.502 0 0 1-6.436-3.65 183.289 183.289 0 0 1-.002-188.695 7.5 7.5 0 0 1 13.037.278 198.323 198.323 0 0 1 23.814 99.784 198.533 198.533 0 0 1-23.817 88.354A7.5 7.5 0 0 1 138.66 234l-.161.001Zm-.326-172.162a167.986 167.986 0 0 0 .004 148.342 183.283 183.283 0 0 0 15.741-68.897 182.627 182.627 0 0 0-15.745-79.445Z"></path></svg>